<svg width="20" height="20" viewBox="0 0 20 20" fill="none" xmlns="http://www.w3.org/2000/svg">
<g clip-path="url(#clip0_6_16)">
<path d="M18.5273 0.846813C18.6724 0.991905 18.7875 1.16415 18.866 1.35372C18.9445 1.5433 18.9849 1.74648 18.9849 1.95167C18.9849 2.15686 18.9445 2.36004 18.866 2.54961C18.7875 2.73918 18.6724 2.91143 18.5273 3.05652L14.7708 6.81303L12.5611 4.60332L16.3176 0.846813C16.6106 0.553787 17.008 0.389167 17.4224 0.389167C17.8368 0.389167 18.2343 0.553787 18.5273 0.846813Z" fill="#8C8891"/>
<path d="M15.2132 7.25541L12.1196 4.16182C11.8755 3.91774 11.4798 3.91774 11.2357 4.16182L10.3518 5.0457C10.1078 5.28978 10.1078 5.68551 10.3518 5.92959L13.4454 9.02318C13.6895 9.26726 14.0852 9.26726 14.3293 9.02318L15.2132 8.1393C15.4573 7.89522 15.4573 7.49949 15.2132 7.25541Z" fill="#AFAEB3"/>
<path d="M13.0031 8.58125L10.7937 6.37187L4.73999 12.4256C4.67498 12.4906 4.62508 12.569 4.59386 12.6555C4.56264 12.7419 4.55086 12.8341 4.55936 12.9256L4.57999 13.1525C4.58849 13.244 4.57671 13.3362 4.54549 13.4227C4.51427 13.5091 4.46437 13.5876 4.39936 13.6525L3.94374 14.1081C3.76798 14.2839 3.66925 14.5223 3.66925 14.7709C3.66925 15.0195 3.76798 15.2579 3.94374 15.4337C4.11954 15.6095 4.35796 15.7082 4.60655 15.7082C4.85514 15.7082 5.09356 15.6095 5.26936 15.4337L5.72499 14.9781C5.78993 14.9131 5.8684 14.8632 5.95483 14.832C6.04125 14.8008 6.13349 14.789 6.22499 14.7975L6.45186 14.8181C6.54336 14.8266 6.6356 14.8148 6.72202 14.7836C6.80845 14.7524 6.88692 14.7025 6.95186 14.6375L13.0031 8.58125Z" fill="#E0E0E2"/>
<path d="M3.5144 18.3606C3.5144 18.6921 3.38271 19.0101 3.14829 19.2445C2.91387 19.4789 2.59592 19.6106 2.2644 19.6106C1.93288 19.6106 1.61494 19.4789 1.38052 19.2445C1.1461 19.0101 1.0144 18.6921 1.0144 18.3606C1.0144 17.6731 2.2644 15.8606 2.2644 15.8606C2.2644 15.8606 3.5144 17.67 3.5144 18.3606Z" fill="#82C8EC"/>
</g>
<defs>
<clipPath id="clip0_6_16">
<rect width="20" height="20" fill="white"/>
</clipPath>
</defs>
</svg>
